<?xml version="1.0" standalone="no"?>
<!DOCTYPE svg PUBLIC "-//W3C//DTD SVG 20010904//EN"
 "http://www.w3.org/TR/2001/REC-SVG-20010904/DTD/svg10.dtd">
<svg version="1.0" xmlns="http://www.w3.org/2000/svg"
 width="1024.000000pt" height="1024.000000pt" viewBox="0 0 1024.000000 1024.000000"
 preserveAspectRatio="xMidYMid meet">

<g transform="translate(0.000000,1024.000000) scale(0.100000,-0.100000)"
fill="#000000" stroke="none">
<path d="M4970 8485 c-342 -37 -719 -166 -995 -340 -348 -220 -608 -509 -801
-890 -211 -419 -275 -887 -183 -1338 108 -531 432 -1042 867 -1369 284 -215
655 -363 1057 -425 149 -23 423 -23 572 0 127 20 343 73 474 117 210 70 495
232 679 385 273 227 504 548 638 885 90 226 136 439 157 720 19 259 -65 686
-188 951 -27 59 -116 212 -144 249 -2 2 -33 -25 -69 -61 l-66 -66 47 -72 c154
-238 240 -577 238 -936 -2 -262 -43 -474 -140 -720 -348 -887 -1294 -1413
-2253 -1254 -319 53 -658 195 -898 376 -109 82 -277 239 -356 333 -181 215
-335 522 -406 809 -37 150 -49 242 -56 426 -14 336 47 619 192 907 135 265
279 454 479 626 290 250 609 406 985 481 301 60 680 46 950 -36 186 -56 402
-147 456 -191 31 -26 41 -29 58 -20 30 16 146 129 146 142 0 13 -325 153 -470
202 -327 110 -641 145 -970 109z"/>
<path d="M6762 8070 c-23 -5 -55 -18 -70 -29 -36 -26 -210 -206 -358 -371
-129 -144 -276 -297 -763 -799 -404 -415 -440 -451 -447 -451 -4 0 -80 70
-170 156 -91 85 -180 162 -199 170 -81 33 -180 12 -246 -55 -82 -82 -86 -168
-11 -253 59 -66 428 -437 510 -511 111 -101 106 -102 300 91 88 86 188 189
222 227 35 39 235 243 444 455 210 212 533 541 718 731 321 331 337 348 343
392 24 157 -111 279 -273 247z"/>
<path d="M4510 7348 c-165 -6 -247 -13 -277 -24 -46 -17 -104 -71 -115 -106
-14 -52 -2 -367 16 -385 3 -3 16 3 29 15 12 12 52 30 89 42 77 24 80 30 77
149 -1 41 2 76 7 77 5 2 238 4 519 6 l509 4 94 107 c52 60 91 111 87 115 -10
10 -764 11 -1035 0z"/>
<path d="M6929 7243 c-13 -16 -12 -17 4 -4 9 7 17 15 17 17 0 8 -8 3 -21 -13z"/>
<path d="M6750 7061 c0 -6 4 -13 10 -16 6 -3 7 1 4 9 -7 18 -14 21 -14 7z"/>
<path d="M6191 6493 c-17 -21 -60 -60 -96 -88 l-66 -50 3 -448 3 -449 -847 -1
-848 -2 0 35 c-1 19 -3 184 -6 365 l-5 330 -97 98 c-53 53 -100 97 -104 97 -5
0 -8 -230 -8 -510 0 -558 -1 -548 59 -604 l31 -30 968 3 c1073 3 1001 -2 1048
68 20 30 21 45 26 465 5 480 -1 731 -18 748 -9 9 -20 2 -43 -27z"/>
<path d="M7152 4799 c-97 -49 -144 -169 -110 -283 17 -56 100 -141 153 -155
63 -17 107 -13 162 14 84 42 133 121 133 212 0 79 -44 154 -114 197 -66 41
-160 48 -224 15z m172 -161 c37 -53 5 -123 -56 -121 -60 2 -78 18 -78 67 0 47
11 61 50 69 53 9 69 6 84 -15z"/>
<path d="M4150 2780 c-62 -11 -132 -35 -218 -77 -55 -26 -94 -55 -155 -116
-166 -165 -236 -344 -224 -574 14 -295 151 -519 391 -640 111 -56 201 -76 351
-77 116 0 139 3 210 27 252 84 431 272 496 522 33 124 30 301 -5 420 -15 49
-39 111 -54 138 l-26 49 -34 -37 c-28 -31 -32 -39 -20 -46 25 -14 69 -126 80
-202 37 -265 -57 -518 -244 -660 -129 -97 -323 -157 -462 -143 -242 25 -420
141 -532 347 -56 102 -69 148 -80 280 -13 161 22 286 117 429 135 202 303 291
545 289 129 0 325 -43 316 -68 -3 -8 12 1 33 20 l37 34 -68 31 c-38 18 -101
39 -141 48 -75 17 -233 20 -313 6z"/>
<path d="M7405 2756 c-272 -62 -452 -222 -545 -481 -104 -290 3 -659 245 -842
136 -103 279 -147 470 -146 110 0 127 3 207 32 153 57 279 146 357 251 63 84
85 129 117 237 23 76 27 106 27 218 0 91 -5 150 -17 195 -22 82 -76 202 -90
197 -5 -2 -18 -14 -28 -28 -17 -24 -17 -26 25 -108 l42 -84 -1 -141 c-1 -157
-20 -251 -74 -361 -102 -210 -375 -358 -625 -342 -351 24 -625 311 -625 656 0
213 58 363 199 513 105 112 293 188 463 188 103 0 244 -26 293 -53 l44 -25 21
23 21 23 -34 21 c-89 55 -362 87 -492 57z"/>
<path d="M4815 2701 c-11 -5 -92 -87 -180 -182 -350 -380 -369 -399 -388 -399
-7 0 -37 20 -67 45 -30 25 -63 45 -72 45 -9 0 -29 -16 -43 -35 l-27 -34 23
-33 c47 -66 148 -195 164 -208 8 -7 19 -10 23 -5 4 4 48 45 97 91 50 46 146
145 215 221 69 75 180 194 248 264 101 105 122 132 122 157 0 55 -63 95 -115
73z"/>
<path d="M7997 2608 c-49 -51 -139 -149 -202 -218 -62 -69 -147 -161 -188
-205 l-75 -80 -54 51 c-29 29 -63 57 -75 63 -20 10 -26 7 -53 -30 -16 -23 -30
-45 -30 -50 0 -4 17 -28 38 -53 20 -25 64 -79 97 -120 33 -41 62 -75 65 -76
10 0 188 180 406 411 255 270 262 279 270 317 8 41 -31 82 -78 82 -29 0 -45
-12 -121 -92z"/>
<path d="M4132 2391 l-184 -6 -24 -28 c-42 -49 -28 -157 21 -157 19 0 26 6 31
28 12 55 15 60 41 67 15 3 81 3 148 -1 l122 -7 48 47 c27 25 46 48 43 51 -10
10 -68 11 -246 6z"/>
<path d="M7224 2366 c-26 -21 -28 -28 -26 -95 1 -82 5 -91 37 -91 25 0 29 7
39 71 8 46 16 49 178 49 l128 0 40 36 c22 20 37 40 34 45 -3 5 -95 9 -204 9
-194 0 -199 -1 -226 -24z"/>
<path d="M4601 2115 l-41 -45 0 -150 0 -150 -280 0 -280 0 0 145 0 144 -30 16
c-62 32 -62 34 -58 -168 2 -138 6 -188 17 -201 12 -15 46 -16 349 -14 l335 3
18 25 c15 21 19 57 24 233 5 133 4 207 -3 207 -5 0 -28 -20 -51 -45z"/>
<path d="M7877 2112 l-37 -38 0 -156 0 -156 -286 0 -287 0 7 136 c3 76 3 142
-1 147 -9 12 -58 35 -74 35 -8 0 -10 -59 -7 -180 3 -156 5 -182 21 -197 16
-17 42 -18 345 -15 290 3 329 5 343 20 14 14 18 50 22 230 2 116 1 212 -2 212
-4 0 -24 -17 -44 -38z"/>
<path d="M4976 1514 c-20 -20 -20 -73 0 -102 10 -15 25 -22 49 -22 41 0 65 29
65 77 0 54 -76 86 -114 47z"/>
<path d="M8289 1418 c-8 -8 -21 -17 -29 -20 -12 -5 -12 -7 3 -13 21 -9 52 16
45 35 -3 10 -8 9 -19 -2z"/>
<path d="M8076 865 c-10 -34 -7 -55 8 -55 8 0 17 7 20 16 5 13 45 15 338 13
183 -2 344 1 358 5 19 5 21 5 10 -3 -12 -8 -6 -11 25 -10 31 0 36 2 20 9 -16
7 -11 9 20 9 31 0 36 -2 20 -9 -19 -8 -19 -9 3 -9 12 -1 22 4 22 10 0 13 52 8
62 -6 14 -19 166 -6 154 14 -15 24 -161 32 -598 34 -449 2 -457 2 -462 -18z"/>
<path d="M8011 813 l-1 -23 -705 0 c-604 0 -705 -2 -705 -14 0 -18 71 -34 185
-44 l80 -7 0 -40 c0 -39 -1 -40 -30 -35 -57 9 -160 3 -203 -12 -49 -18 -49
-18 -55 77 -2 28 -4 -30 -5 -127 l-2 -176 -165 42 c-91 24 -165 39 -165 34 0
-4 7 -8 16 -8 20 0 47 -27 39 -39 -7 -12 66 -35 115 -37 19 0 42 -3 50 -6 8
-3 48 -12 88 -19 64 -11 77 -10 108 4 31 15 84 17 464 17 333 0 429 -3 433
-12 4 -10 6 -10 6 0 1 9 34 12 131 12 97 0 130 -3 130 -12 0 -9 2 -10 8 -2 9
15 188 19 197 4 8 -12 69 -13 112 -1 24 7 35 6 40 -3 9 -14 65 -15 76 -1 6 7
10 6 13 -1 3 -6 23 -8 54 -4 28 4 53 4 55 1 3 -3 27 -6 53 -8 26 -1 68 -4 95
-5 26 -2 49 2 51 7 3 7 7 7 13 0 4 -5 43 -10 86 -11 61 -1 77 2 73 13 -3 7 -1
13 3 13 5 0 11 -6 13 -12 3 -9 49 -13 175 -14 93 -1 176 -5 183 -9 8 -5 11 -4
7 2 -4 5 6 10 23 10 16 0 27 -4 24 -9 -3 -4 2 -5 10 -2 8 3 34 -1 57 -9 43
-15 69 -15 272 -2 48 3 96 1 105 -4 19 -10 110 4 127 20 5 5 9 99 10 219 l0
210 -25 0 -25 0 -1 -186 c-1 -208 0 -204 -72 -204 l-43 0 7 45 c3 25 3 115 -1
200 l-7 155 -29 0 -29 0 6 -122 c3 -68 2 -157 -3 -198 l-8 -75 -59 -3 -59 -3
9 43 c12 60 7 328 -7 345 -14 16 -46 17 -51 1 -2 -7 -2 -40 1 -73 4 -56 5 -58
12 -25 6 27 7 24 3 -15 -2 -27 -8 -97 -13 -153 -5 -57 -13 -108 -17 -112 -5
-5 -22 -9 -39 -10 -64 -4 -60 -17 -62 186 -1 121 -6 191 -13 198 -8 8 -182 11
-605 10 l-593 -1 -10 21 c-11 21 -11 21 -11 -1z m87 -420 c-10 -2 -28 -2 -40
0 -13 2 -5 4 17 4 22 1 32 -1 23 -4z"/>
<path d="M5979 676 c-5 -5 -137 -32 -201 -41 -51 -7 -67 -31 -25 -39 64 -14
250 -35 258 -30 10 6 12 58 3 92 -6 20 -24 29 -35 18z"/>
<path d="M7443 383 c9 -2 23 -2 30 0 6 3 -1 5 -18 5 -16 0 -22 -2 -12 -5z"/>
<path d="M7668 383 c6 -2 18 -2 25 0 6 3 1 5 -13 5 -14 0 -19 -2 -12 -5z"/>
<path d="M7763 383 c9 -2 23 -2 30 0 6 3 -1 5 -18 5 -16 0 -22 -2 -12 -5z"/>
<path d="M7860 380 c0 -6 11 -8 28 -4 39 10 40 14 4 14 -18 0 -32 -5 -32 -10z"/>
</g>
</svg>
